<?xml version="1.0" standalone="no"?>
<!DOCTYPE svg PUBLIC "-//W3C//DTD SVG 20010904//EN"
 "http://www.w3.org/TR/2001/REC-SVG-20010904/DTD/svg10.dtd">
<svg version="1.0" xmlns="http://www.w3.org/2000/svg"
 width="619.000000pt" height="619.000000pt" viewBox="0 0 619.000000 619.000000"
 preserveAspectRatio="xMidYMid meet">
<metadata>
Created by potrace 1.11, written by Peter Selinger 2001-2013
</metadata>
<g transform="translate(0.000000,619.000000) scale(0.100000,-0.100000)"
fill="#000000" stroke="none">
<path d="M1389 5016 c-2 -2 -33 -6 -69 -10 -72 -7 -91 -10 -205 -32 -189 -38
-390 -129 -530 -241 -272 -219 -418 -553 -366 -840 37 -200 151 -377 316 -489
121 -82 363 -178 555 -219 8 -2 44 -10 80 -19 153 -36 369 -60 550 -60 105 0
308 12 319 18 3 2 27 7 53 10 47 6 229 51 258 63 58 24 116 41 122 35 5 -6 68
-230 178 -642 36 -135 145 -549 156 -590 17 -71 60 -229 80 -294 7 -27 14 -55
14 -62 0 -28 -335 -118 -515 -138 -195 -22 -752 -23 -867 -1 -11 3 -46 7 -77
10 -31 4 -63 8 -71 10 -8 2 -37 7 -65 10 -88 11 -376 85 -490 127 -327 120
-599 301 -783 524 l-32 39 25 -60 c53 -123 175 -317 273 -434 167 -200 347
-321 609 -410 105 -35 258 -76 324 -86 24 -4 49 -8 54 -9 6 -2 33 -6 60 -10
28 -4 60 -9 71 -11 175 -26 804 -26 939 1 11 2 52 7 90 10 39 3 73 8 76 10 3
1 30 6 60 9 30 4 73 11 97 16 23 5 59 12 80 15 20 3 79 17 131 29 94 24 95 24
122 4 25 -17 47 -19 216 -21 157 -1 193 1 219 15 41 21 67 66 88 154 l18 71
92 71 c91 69 226 199 287 276 98 124 199 305 242 434 l25 74 11 -39 c87 -334
188 -715 215 -814 19 -69 42 -152 51 -186 l17 -61 131 3 c256 6 318 12 353 36
18 12 39 34 47 48 9 14 41 120 72 235 52 193 173 630 216 785 11 36 28 97 38
135 11 39 56 198 101 355 104 368 148 523 259 925 51 182 96 339 100 350 76
184 151 260 315 321 l61 23 -420 0 -420 0 52 -18 c29 -11 60 -25 71 -33 141
-100 208 -243 205 -438 -1 -68 -3 -78 -73 -325 -23 -82 -49 -175 -56 -205 -8
-30 -16 -62 -18 -70 -2 -8 -43 -160 -90 -337 -48 -177 -89 -330 -91 -340 -2
-10 -17 -69 -35 -132 -17 -62 -33 -120 -35 -130 -2 -9 -12 -50 -23 -91 -11
-41 -36 -138 -56 -215 -20 -77 -38 -144 -40 -150 -9 -24 -66 156 -171 535 -55
197 -161 556 -243 820 -14 47 -27 90 -28 95 -2 6 -10 33 -18 60 -8 28 -30 106
-50 175 -19 69 -40 139 -45 155 -50 156 -83 304 -78 351 14 133 110 218 303
265 49 12 92 25 96 28 4 3 -299 6 -672 6 -373 0 -673 -3 -667 -7 7 -4 19 -8
27 -8 29 0 98 -53 118 -89 11 -20 23 -54 27 -76 4 -22 15 -69 25 -105 40 -147
80 -298 80 -304 0 -4 -23 21 -52 56 -182 222 -432 432 -713 600 -126 76 -421
225 -510 258 -33 12 -69 26 -80 31 -71 32 -359 110 -480 130 -189 31 -260 37
-451 38 -100 0 -183 -1 -185 -3z m306 -411 c77 -11 291 -64 380 -93 l80 -27
23 -85 c12 -47 24 -94 26 -105 3 -11 14 -63 26 -115 12 -52 24 -106 26 -120 3
-14 16 -68 30 -120 14 -52 27 -104 29 -114 3 -10 16 -60 31 -110 14 -50 37
-129 49 -176 13 -47 30 -109 39 -139 8 -30 13 -58 11 -61 -5 -7 -77 -28 -125
-36 -14 -2 -36 -7 -50 -10 -191 -45 -460 -45 -760 1 -213 32 -470 131 -636
247 -88 60 -206 176 -242 237 -107 183 -88 411 46 555 113 120 435 249 680
272 37 4 68 8 70 9 6 5 216 -3 267 -10z m1514 -644 c134 -108 298 -288 404
-443 96 -141 190 -345 217 -469 13 -57 4 -109 -41 -254 -12 -39 -179 -676
-179 -683 0 -21 -17 28 -69 203 -52 175 -116 407 -126 454 -2 9 -24 107 -49
219 -25 111 -48 213 -50 225 -6 29 -63 294 -82 377 -8 36 -17 74 -19 86 -10
44 -86 310 -95 332 -5 12 -7 22 -4 22 4 0 45 -31 93 -69z"/>
</g>
</svg>
